<svg xmlns="http://www.w3.org/2000/svg" width="40" height="40" viewBox="0 0 40 40">
  <g id="Group_79" data-name="Group 79" transform="translate(-936 -1200)">
    <circle id="Ellipse_4" data-name="Ellipse 4" cx="20" cy="20" r="20" transform="translate(936 1200)" fill="#e6f7ff"/>
    <g id="chart-bar-33" transform="translate(947.34 1211.34)">
      <g id="Group_18" data-name="Group 18">
        <path id="Path_624" data-name="Path 624" d="M15.789,17H12.541a.541.541,0,0,0-.541.541v7.036a.541.541,0,0,0,.541.541h3.248a.541.541,0,0,0,.541-.541V17.541A.541.541,0,0,0,15.789,17Z" transform="translate(-5.505 -7.799)" fill="#1890ff"/>
        <path id="Path_625" data-name="Path 625" d="M3.789,23H.541A.541.541,0,0,0,0,23.541V27.33a.541.541,0,0,0,.541.541H3.789a.541.541,0,0,0,.541-.541V23.541A.541.541,0,0,0,3.789,23Z" transform="translate(0 -10.551)" fill="#1890ff"/>
        <path id="Path_626" data-name="Path 626" d="M27.789,11H24.541a.541.541,0,0,0-.541.541V21.825a.541.541,0,0,0,.541.541h3.248a.541.541,0,0,0,.541-.541V11.541A.541.541,0,0,0,27.789,11Z" transform="translate(-11.01 -5.046)" fill="#1890ff"/>
        <path id="Path_627" data-name="Path 627" d="M11.088,6.5a.54.54,0,0,0,.383-.159L15.96,1.848V4.33h1.083V.541A.541.541,0,0,0,16.5,0H12.712V1.083h2.482L11.088,5.189,8.765,2.865a.541.541,0,0,0-.765,0L5.293,5.571l.765.765L8.382,4.013l2.324,2.324A.54.54,0,0,0,11.088,6.5Z" transform="translate(-2.428)" fill="#1890ff"/>
      </g>
    </g>
  </g>
</svg>
